Coordinates
version=1
nRows=17
nColumns=24
inDegrees=yes

Units are S.I. units (second, meters, Newtons, ...)
Angles are in degrees.

endheader
time	pelvis_tilt	pelvis_list	pelvis_rotation	pelvis_tx	pelvis_ty	pelvis_tz	hip_flexion_r	hip_adduction_r	hip_rotation_r	knee_angle_r	ankle_angle_r	subtalar_angle_r	mtp_angle_r	hip_flexion_l	hip_adduction_l	hip_rotation_l	knee_angle_l	ankle_angle_l	subtalar_angle_l	mtp_angle_l	lumbar_extension	lumbar_bending	lumbar_rotation
      1.06250000	      0.78419317	     -0.93418407	      2.14146283	      0.58482609	      1.01772924	      0.26902853	      7.83795942	      6.61469473	      4.63871513	    -15.82313749	      5.30208355	    -17.40237109	      8.66791655	     11.24384359	     -1.55593294	     -1.42213420	    -66.54908738	      6.81663988	     -6.20585111	      7.68458583	     -2.18757485	      2.51866435	      1.46628818
      1.06666667	      0.77499672	     -0.85264446	      1.82944840	      0.58958899	      1.01831065	      0.26947582	      7.40095539	      6.54277066	      4.82073375	    -15.52105130	      5.38571878	    -17.19420451	      8.75480233	     11.81046271	     -1.49483743	     -1.69283098	    -66.35770714	      7.01087694	     -6.13805968	      7.60579680	     -2.22453169	      2.42690522	      1.71868350
      1.07083333	      0.76370661	     -0.77169029	      1.52300657	      0.59434551	      1.01887121	      0.26990191	      6.96650658	      6.46450059	      4.98474696	    -15.21387056	      5.43771964	    -16.98119887	      8.90310885	     12.37211405	     -1.43662393	     -1.96008209	    -66.13209341	      7.20026367	     -6.11881274	      7.46669383	     -2.25411499	      2.33159573	      2.03620519
      1.07500000	      0.75190205	     -0.68432820	      1.22006025	      0.59908457	      1.01940468	      0.27032364	      6.53315256	      6.37811868	      5.17102417	    -14.90713209	      5.50931481	    -16.80667098	      8.93771166	     12.92755353	     -1.37808748	     -2.23021132	    -65.87148055	      7.36460002	     -6.10267319	      7.43907674	     -2.26839934	      2.23906118	      2.11502825
      1.07916667	      0.76753855	     -0.59973983	      0.91398464	      0.60379830	      1.01993800	      0.27078201	      6.08049794	      6.29482416	      5.35526587	    -14.62086828	      5.63570897	    -16.60112522	      9.02612004	     13.44433912	     -1.33616321	     -2.50783135	    -65.57899637	      7.54444899	     -6.03518876	      7.36134521	     -2.34525768	      2.12181092	      2.49425130
      1.08333333	      0.75067848	     -0.52288658	      0.61600769	      0.60850933	      1.02039313	      0.27120767	      5.66263122	      6.21348658	      5.53529482	    -14.32841379	      5.71562063	    -16.41939573	      9.12260376	     13.99269279	     -1.30155400	     -2.77603998	    -65.26251311	      7.70501599	     -6.03556207	      7.27258890	     -2.36401026	      2.02672825	      2.76860431
      1.08750000	      0.74596598	     -0.44438042	      0.32406601	      0.61319595	      1.02083733	      0.27161690	      5.23627986	      6.12642934	      5.71202181	    -14.04273676	      5.80333522	    -16.23522854	      9.21805151	     14.52104761	     -1.26808808	     -3.04004175	    -64.91467135	      7.86161747	     -6.03273569	      7.18318833	     -2.40221560	      1.93078254	      3.01091395
      1.09166667	      0.71743192	     -0.38246343	      0.03715410	      0.61787305	      1.02120326	      0.27203282	      4.83951986	      6.05525908	      5.88660529	    -13.75937508	      5.85771372	    -16.06359883	      9.26601118	     15.07307399	     -1.26203390	     -3.30227665	    -64.55026049	      8.01610407	     -6.05045992	      7.13888364	     -2.40842702	      1.84277452	      3.13909815
      1.09583333	      0.69554021	     -0.31052142	     -0.24578381	      0.62254100	      1.02156294	      0.27240311	      4.43623191	      5.96782640	      6.07326043	    -13.47788241	      5.93248598	    -15.89616250	      9.30348667	     15.60422402	     -1.23512440	     -3.54507652	    -64.14267185	      8.16056417	     -6.05957739	      7.10439749	     -2.42405465	      1.77671618	      3.29462661
      1.10000000	      0.69412515	     -0.23766523	     -0.52274854	      0.62718511	      1.02190833	      0.27279912	      4.01968323	      5.87826601	      6.24291903	    -13.21416959	      6.06750475	    -15.72324510	      9.39289169	     16.10772813	     -1.21976375	     -3.79379257	    -63.71045501	      8.28529525	     -6.05948499	      7.01190662	     -2.46896718	      1.67229345	      3.70564176
      1.10416667	      0.69211678	     -0.16879171	     -0.79882019	      0.63182341	      1.02223184	      0.27318200	      3.60401169	      5.78935976	      6.42501600	    -12.94741960	      6.16148369	    -15.55681302	      9.47902893	     16.60054657	     -1.21058963	     -4.03907233	    -63.24531230	      8.40808448	     -6.07365782	      6.91746399	     -2.50951308	      1.58331019	      3.92882195
      1.10833333	      0.65242855	     -0.12848692	     -1.02934766	      0.63647308	      1.02247151	      0.27348282	      3.21536290	      5.72463813	      6.56597874	    -12.64981231	      6.22427684	    -15.40823626	      9.49530843	     17.13909929	     -1.21678055	     -4.22022450	    -62.77267296	      8.53056102	     -6.10045842	      6.90171876	     -2.49277815	      1.52697535	      3.96476694
      1.11250000	      0.65936408	     -0.05343942	     -1.33621529	      0.64108025	      1.02274928	      0.27390941	      2.81269148	      5.62652662	      6.77910991	    -12.42695195	      6.34169589	    -15.25013414	      9.55650825	     17.59416530	     -1.22512594	     -4.51083613	    -62.23884796	      8.62227621	     -6.09204609	      6.82716058	     -2.54397378	      1.42664814	      4.29651184
      1.11666667	      0.64312375	      0.00197523	     -1.59634008	      0.64566536	      1.02295725	      0.27424358	      2.42442429	      5.54252841	      6.96220588	    -12.17614155	      6.43426344	    -15.08629110	      9.62535576	     18.08113336	     -1.22895625	     -4.72026857	    -61.69778159	      8.71370246	     -6.09597567	      6.73566684	     -2.58752779	      1.35788463	      4.55319511
      1.12083333	      0.64106252	      0.05527605	     -1.85736888	      0.65025455	      1.02316402	      0.27456360	      2.02343333	      5.45529951	      7.13004144	    -11.92861747	      6.51246129	    -14.91484542	      9.70577538	     18.53744591	     -1.23743436	     -4.93124053	    -61.12234961	      8.80016382	     -6.10066282	      6.61833603	     -2.63061694	      1.29649695	      4.77571348
      1.12500000	      0.59870772	      0.10146476	     -2.10525165	      0.65483302	      1.02326350	      0.27489041	      1.66986250	      5.37799124	      7.30780866	    -11.68900809	      6.59569424	    -14.77228496	      9.72692580	     19.03666234	     -1.26027807	     -5.13013507	    -60.53348556	      8.86272295	     -6.08441805	      6.58870166	     -2.63134724	      1.22173837	      4.83522016
      1.12916667	      0.59562979	      0.15746568	     -2.36523862	      0.65941089	      1.02340060	      0.27520376	      1.28333337	      5.28388981	      7.47884913	    -11.47033323	      6.73469669	    -14.61668490	      9.77604538	     19.47053198	     -1.27147114	     -5.33667289	    -59.89755237	      8.90750407	     -6.05332720	      6.50565622	     -2.66935886	      1.15052468	      5.13701986
